# xmcd
#
# Track frame offsets:
#	150
#	2432
#	4732
#	6895
#	8956
#	10895
#	12834
#	14864
#	17009
#	21733
#	26494
#	28753
#	30963
#	33069
#	35164
#	37099
#	39045
#	41141
#	43196
#	54538
#	65749
#	70177
#	74559
#	75763
#	76987
#	78307
#	79627
#	80844
#	82061
#	83267
#	84467
#	85761
#	87055
#	88349
#	89632
#	100398
#	111164
#	112329
#	113494
#	114776
#	116069
#	117362
#	118648
#	126993
#	135354
#	137081
#	138868
#	140922
#	142936
#	144705
#	146469
#	150779
#	155035
#	156812
#	158633
#	160622
#	162737
#	164529
#	166259
#	177383
#	188505
#	190273
#	192041
#	194222
#	196353
#	198097
#	199827
#	209609
#	219430
#	221446
#	223462
#	225952
#	228411
#	239459
#	250570
#	259888
#	269220
#	279496
#	289772
#	299397
#
# Disc length: 4119 seconds
#
# Revision: 1
# Processed by: cddbd v1.5.2PL0 Copyright (c) Steve Scherf et al.
# Submitted via: audiograbber 1.83.01
#
DISCID=67101550
DTITLE=Michael Gundlach - Blues Schule für Trompete CD 2
DYEAR=2012
DGENRE=PlayAlong
TTITLE0=Übung 33 TP
TTITLE1=Übung 33 TP PB
TTITLE2=Übung 34 TP
TTITLE3=Übung 34 TP PB
TTITLE4=Übung 35 TP
TTITLE5=Übung 35 TP PB
TTITLE6=Übung 36 TP
TTITLE7=Übung 36 TP PB
TTITLE8=Straight Forward TP
TTITLE9=Straight Forward TP PB
TTITLE10=Übung 37 TP
TTITLE11=Übung 37 TP PB
TTITLE12=Übung 38 TP
TTITLE13=Übung 38 TP PB
TTITLE14=Übung 39 TP
TTITLE15=Übung 39 TP PB
TTITLE16=Übung 40 TP
TTITLE17=Übung 40 TP PB
TTITLE18=Smoothie TP
TTITLE19=Smoothie TP PB
TTITLE20=Whats Up TP
TTITLE21=Whats Up TP PB
TTITLE22=Übung 41 TP
TTITLE23=Übung 41 TP PB
TTITLE24=Übung 42 TP
TTITLE25=Übung 42 TP PB
TTITLE26=Übung 43 TP
TTITLE27=Übung 43 TP PB
TTITLE28=Übung 44 TP
TTITLE29=Übung 44 TP PB
TTITLE30=Übung 45 TP
TTITLE31=Übung 45 TP PB
TTITLE32=Übung 46 TP
TTITLE33=Übung 46 TP PB
TTITLE34=Easy Livin TP
TTITLE35=Easy Livin TP PB
TTITLE36=Übung 47 TP
TTITLE37=Übung 47 TP PB
TTITLE38=Übung 48 TP
TTITLE39=Übung 48 TP PB
TTITLE40=Übung 49 TP
TTITLE41=Übung 49 TP PB
TTITLE42=Blues Boy TP
TTITLE43=Blues Boy TP PB
TTITLE44=Übung 50 TP
TTITLE45=Übung 50 TP PB
TTITLE46=Übung 51 TP
TTITLE47=Übung 51 TP PB
TTITLE48=Übung 52 TP
TTITLE49=Übung 52 TP PB
TTITLE50=Little Penta Blues TP
TTITLE51=Little Penta Blues TP PB
TTITLE52=Übung 53 TP
TTITLE53=Übung 53 TP PB
TTITLE54=Übung 54 TP
TTITLE55=Übung 54 TP PB
TTITLE56=Übung 55 TP
TTITLE57=Übung 55 TP PB
TTITLE58=In the Sky TP
TTITLE59=In the Sky TP PB
TTITLE60=Übung 56 TP
TTITLE61=Übung 56 TP PB
TTITLE62=Übung 57 TP
TTITLE63=Übung 57 TP PB
TTITLE64=Übung 58 TP
TTITLE65=Übung 58 TP PB
TTITLE66=Saturday Night TP
TTITLE67=Saturday Night TP PB
TTITLE68=Übung 59 TP
TTITLE69=Übung 59 TP PB
TTITLE70=Übung 60 TP
TTITLE71=Übung 60 TP PB
TTITLE72=Little Joe TP
TTITLE73=Little Joe TP PB
TTITLE74=Bobs Reggae TP
TTITLE75=Bobs Reggae TP PB
TTITLE76=Funky Joe TP
TTITLE77=Funky Joe TP PB
TTITLE78=Blue salsa TP
TTITLE79=Blue salsa TP PB
EXTD=
EXTT0=
EXTT1=
EXTT2=
EXTT3=
EXTT4=
EXTT5=
EXTT6=
EXTT7=
EXTT8=
EXTT9=
EXTT10=
EXTT11=
EXTT12=
EXTT13=
EXTT14=
EXTT15=
EXTT16=
EXTT17=
EXTT18=
EXTT19=
EXTT20=
EXTT21=
EXTT22=
EXTT23=
EXTT24=
EXTT25=
EXTT26=
EXTT27=
EXTT28=
EXTT29=
EXTT30=
EXTT31=
EXTT32=
EXTT33=
EXTT34=
EXTT35=
EXTT36=
EXTT37=
EXTT38=
EXTT39=
EXTT40=
EXTT41=
EXTT42=
EXTT43=
EXTT44=
EXTT45=
EXTT46=
EXTT47=
EXTT48=
EXTT49=
EXTT50=
EXTT51=
EXTT52=
EXTT53=
EXTT54=
EXTT55=
EXTT56=
EXTT57=
EXTT58=
EXTT59=
EXTT60=
EXTT61=
EXTT62=
EXTT63=
EXTT64=
EXTT65=
EXTT66=
EXTT67=
EXTT68=
EXTT69=
EXTT70=
EXTT71=
EXTT72=
EXTT73=
EXTT74=
EXTT75=
EXTT76=
EXTT77=
EXTT78=
EXTT79=
PLAYORDER=
